Coordinates
version=1
nRows=16
nColumns=22
inDegrees=yes

Units are S.I. units (second, meters, Newtons, ...)
If the header above contains a line with 'inDegrees', this indicates whether rotational values are in degrees (yes) or radians (no).

endheader
time	pelvis_tilt	pelvis_list	pelvis_rotation	pelvis_tx	pelvis_ty	pelvis_tz	hip_flexion_r	hip_adduction_r	hip_rotation_r	knee_angle_r	ankle_angle_r	subtalar_angle_r	hip_flexion_l	hip_adduction_l	hip_rotation_l	knee_angle_l	ankle_angle_l	subtalar_angle_l	lumbar_extension	lumbar_bending	lumbar_rotation
      0.01000000	     -7.47402293	      5.12520029	    -38.30816177	     -1.36324487	      0.88353380	     -0.27036099	      9.81097262	     -4.57143647	     -0.08217530	    -10.35468960	     14.21494594	      3.78330113	      8.27372562	     -3.45744163	     -6.88859229	    -11.00374105	     14.02498530	      2.70097337	      3.72887347	     -2.09737260	     12.11043007
      0.02000000	     -7.46283757	      5.10951483	    -38.29664593	     -1.36320906	      0.88354285	     -0.27031402	      9.81359922	     -4.56403894	     -0.08243536	    -10.40961202	     14.23154711	      3.78092855	      8.23635508	     -3.46304750	     -6.87244199	    -10.97735806	     14.02267167	      2.70265912	      3.73685007	     -2.08716819	     12.15542554
      0.03000000	     -7.44397014	      5.09446665	    -38.29099863	     -1.36314864	      0.88355120	     -0.27024424	      9.81160185	     -4.56165582	     -0.08060192	    -10.46904927	     14.26265613	      3.77474781	      8.17637099	     -3.46228223	     -6.86281048	    -10.92720857	     14.02828245	      2.70497995	      3.74623593	     -2.07921645	     12.20190415
      0.04000000	     -7.41837750	      5.07800367	    -38.28964618	     -1.36307397	      0.88356190	     -0.27016435	      9.80237118	     -4.56242964	     -0.07878804	    -10.52928405	     14.29751210	      3.76577216	      8.10117327	     -3.45796434	     -6.85654177	    -10.86347990	     14.02971512	      2.70779025	      3.75197216	     -2.07164639	     12.25601973
      0.05000000	     -7.38921111	      5.06022077	    -38.29319741	     -1.36297831	      0.88357113	     -0.27007529	      9.78679484	     -4.56484533	     -0.07634089	    -10.58580413	     14.33410388	      3.75533320	      8.01157670	     -3.45129098	     -6.85450156	    -10.78505639	     14.03158768	      2.71087991	      3.75719636	     -2.06259891	     12.30813552
      0.06000000	     -7.31855976	      5.03315534	    -38.30695817	     -1.36286545	      0.88363770	     -0.26997754	      9.72535064	     -4.58614745	     -0.05065527	    -10.63412484	     14.38509636	      3.73475290	      7.87052502	     -3.42413299	     -6.85976984	    -10.68980282	     14.00176397	      2.71644971	      3.71700624	     -2.07314668	     12.36690326
      0.07000000	     -7.30757420	      5.01917143	    -38.30733894	     -1.36272455	      0.88361531	     -0.26988690	      9.71363651	     -4.58221422	     -0.06677956	    -10.66756402	     14.40043425	      3.72970868	      7.80268885	     -3.42618145	     -6.86007595	    -10.62259903	     14.02376086	      2.71769270	      3.74757147	     -2.05008140	     12.40438609
      0.08000000	     -7.24278216	      4.98565180	    -38.32160604	     -1.36257751	      0.88367393	     -0.26978528	      9.65121353	     -4.59591525	     -0.04913060	    -10.71692098	     14.45376339	      3.71527945	      7.66175273	     -3.40799769	     -6.85734710	    -10.52905316	     14.00522536	      2.72486740	      3.70970513	     -2.04898329	     12.45778616
      0.09000000	     -7.23199836	      4.97406160	    -38.31916421	     -1.36240539	      0.88364899	     -0.26972415	      9.63993369	     -4.59693082	     -0.05628387	    -10.74968379	     14.46768358	      3.71199878	      7.60274649	     -3.40526934	     -6.86103053	    -10.47180498	     14.03017581	      2.72657329	      3.73938331	     -2.02384425	     12.47350037
      0.10000000	     -7.16424530	      4.94432349	    -38.33191895	     -1.36222419	      0.88371125	     -0.26962517	      9.57169254	     -4.61788146	     -0.04744123	    -10.79095362	     14.52428216	      3.69977466	      7.47372895	     -3.38122281	     -6.85604604	    -10.40328380	     14.01021652	      2.73577276	      3.70325040	     -2.02850271	     12.51195873
      0.11000000	     -7.14982221	      4.93333349	    -38.32225140	     -1.36205626	      0.88369985	     -0.26959454	      9.56239420	     -4.62302388	     -0.03412904	    -10.83318257	     14.53066377	      3.69749107	      7.42978162	     -3.37556383	     -6.84898828	    -10.37424739	     14.02898178	      2.73766112	      3.72230338	     -2.00980095	     12.50433501
      0.12000000	     -7.11888386	      4.91834948	    -38.31792819	     -1.36189494	      0.88371460	     -0.26954514	      9.54559887	     -4.63393725	     -0.03105061	    -10.89344144	     14.56905287	      3.69155001	      7.36666491	     -3.36330623	     -6.82761990	    -10.34302828	     14.03747317	      2.74229792	      3.72280528	     -2.00461417	     12.50920077
      0.13000000	     -7.10983266	      4.91394876	    -38.30220090	     -1.36172687	      0.88370849	     -0.26951836	      9.53188648	     -4.64082191	     -0.02480861	    -10.91004631	     14.56945323	      3.69093507	      7.35148461	     -3.35717336	     -6.82776821	    -10.35027752	     14.03639026	      2.74263528	      3.74926684	     -1.99404332	     12.51108457
      0.14000000	     -7.04816685	      4.90816416	    -38.28175925	     -1.36154235	      0.88375438	     -0.26952392	      9.51213906	     -4.68693579	     -0.05378343	    -11.00646501	     14.64928463	      3.67444990	      7.26656283	     -3.30919029	     -6.78933613	    -10.30547881	     14.02858068	      2.75167262	      3.71860914	     -2.02009305	     12.49505181
      0.15000000	     -7.02717499	      4.90246691	    -38.25907972	     -1.36138343	      0.88376774	     -0.26952056	      9.50336786	     -4.70124950	     -0.04164329	    -11.05472464	     14.65454292	      3.67010853	      7.23818080	     -3.29391625	     -6.77872228	    -10.30090627	     14.02845410	      2.75297759	      3.72411420	     -2.01872780	     12.46473895
      0.16000000	     -6.99289135	      4.89605807	    -38.22806568	     -1.36120385	      0.88378887	     -0.26953258	      9.49586332	     -4.72807622	     -0.06715493	    -11.13223590	     14.69537533	      3.65929916	      7.19593916	     -3.26715448	     -6.73707175	    -10.29139823	     14.03161638	      2.75608196	      3.71517525	     -2.02783070	     12.44033483
